<svg id="a1336375-e64e-4cee-94cc-8adfaafeb2b5" data-name="圖層 1" xmlns="http://www.w3.org/2000/svg" width="544" height="226" viewBox="0 0 544 226"><defs><style>.\37 1158600-63cf-4674-8b3f-fefad4497961{fill:#7c36df;}</style></defs><title>title-p</title><path class="71158600-63cf-4674-8b3f-fefad4497961" d="M156.83,74q0,5.76-3.48,8.7a12.42,12.42,0,0,1-8.28,2.94,12,12,0,0,1-8.1-2.94q-3.42-2.94-3.42-8.7V54h-19V74q0,5.76-3.48,8.7a12.42,12.42,0,0,1-8.28,2.94,12,12,0,0,1-8.1-2.94q-3.42-2.94-3.42-8.7V11.87q0-5.52,3.42-8.52a11.88,11.88,0,0,1,8.1-3,12.27,12.27,0,0,1,8.28,3q3.48,3,3.48,8.52V32h19V11.87q0-5.52,3.42-8.52a11.88,11.88,0,0,1,8.1-3,12.27,12.27,0,0,1,8.28,3q3.48,3,3.48,8.52Z"/><path class="71158600-63cf-4674-8b3f-fefad4497961" d="M215.39,68.87h-25l-3.72,9.24a12.83,12.83,0,0,1-4.44,5.7,10.16,10.16,0,0,1-5.76,1.86,13.84,13.84,0,0,1-4.62-.78,13.6,13.6,0,0,1-4-2.22A11,11,0,0,1,165,79.19a9.59,9.59,0,0,1-1.08-4.56,10.18,10.18,0,0,1,.84-4.68L193.31,7.31a14.29,14.29,0,0,1,3.72-5Q199.31.35,204.11.35q4.56,0,6.9,1.92a12.72,12.72,0,0,1,3.66,5.16l26,62.52a10.64,10.64,0,0,1,.84,4.68,9.34,9.34,0,0,1-1.08,4.44,11.38,11.38,0,0,1-2.82,3.48,13.64,13.64,0,0,1-4,2.28,13.11,13.11,0,0,1-4.56.84q-7.68,0-10.32-7.56ZM197.75,50.51H209l-5.16-15.24Z"/><path class="71158600-63cf-4674-8b3f-fefad4497961" d="M272.39,73.67q0,12-11.64,12T249,73.91V12.47Q249,.71,260.27.71H284a40.45,40.45,0,0,1,13.14,1.92,24,24,0,0,1,9.18,5.46,21.82,21.82,0,0,1,5.34,8.58A34.42,34.42,0,0,1,313.43,28a34.52,34.52,0,0,1-1.62,10.74,25.61,25.61,0,0,1-4.62,8.58,21.83,21.83,0,0,1-7.32,5.7,22.23,22.23,0,0,1-9.84,2.1H286q-5.76,0-8-2.7a10.89,10.89,0,0,1-2.28-7.26q0-4.56,2.52-6.72a9.43,9.43,0,0,1,6.36-2.16h1.92a6.62,6.62,0,0,0,4.68-1.56,6.25,6.25,0,0,0,1.68-4.8q0-3.6-2-5.22A9.06,9.06,0,0,0,285,23h-12.6Z"/><path class="71158600-63cf-4674-8b3f-fefad4497961" d="M343.19,73.67q0,12-11.64,12T319.79,73.91V12.47Q319.79.71,331.07.71h23.76A40.45,40.45,0,0,1,368,2.63a24,24,0,0,1,9.18,5.46,21.82,21.82,0,0,1,5.34,8.58A34.42,34.42,0,0,1,384.23,28a34.52,34.52,0,0,1-1.62,10.74A25.61,25.61,0,0,1,378,47.27a21.83,21.83,0,0,1-7.32,5.7,22.23,22.23,0,0,1-9.84,2.1h-4.08q-5.76,0-8-2.7a10.89,10.89,0,0,1-2.28-7.26q0-4.56,2.52-6.72a9.43,9.43,0,0,1,6.36-2.16h1.92a6.62,6.62,0,0,0,4.68-1.56,6.25,6.25,0,0,0,1.68-4.8q0-3.6-2-5.22A9.06,9.06,0,0,0,355.79,23h-12.6Z"/><path class="71158600-63cf-4674-8b3f-fefad4497961" d="M430.67,6.35a11.3,11.3,0,0,1,14.4-5.1,13.53,13.53,0,0,1,3.84,2.4,11.51,11.51,0,0,1,2.7,3.6,10.16,10.16,0,0,1,1,4.5,12,12,0,0,1-1.92,6.36L432,48.59V74q0,5.76-3.48,8.7a12.88,12.88,0,0,1-16.38,0q-3.42-2.94-3.42-8.7V48.59l-19-30.6a10.89,10.89,0,0,1-1.92-5.88,10.55,10.55,0,0,1,1-4.56,12.79,12.79,0,0,1,2.7-3.78,12.3,12.3,0,0,1,3.84-2.52,11.31,11.31,0,0,1,9.84.48,11,11,0,0,1,4.56,4.5l10.44,18.24Z"/><path class="71158600-63cf-4674-8b3f-fefad4497961" d="M.06,152.71Q.06,141,10.62,141H47.46a15.9,15.9,0,0,1,7.8,1.86,17.76,17.76,0,0,1,5.64,4.92,21.84,21.84,0,0,1,3.41,7,28.94,28.94,0,0,1,1.15,8,25.46,25.46,0,0,1-3.06,12.66,13.85,13.85,0,0,1-9.55,6.9,12.43,12.43,0,0,1,5.83,2.16,16,16,0,0,1,4.38,4.68,25,25,0,0,1,2.82,6.6,29.78,29.78,0,0,1,1,7.8,28.82,28.82,0,0,1-1.21,8.4A19.44,19.44,0,0,1,62,219a17.47,17.47,0,0,1-6.54,4.74,24,24,0,0,1-9.54,1.74H11.22Q0,225.43.06,213.55Zm22.32,11.76v10.92H39.77a4.07,4.07,0,0,0,3.61-1.8,7.27,7.27,0,0,0,1.2-4.08A5.82,5.82,0,0,0,43.44,166a4.25,4.25,0,0,0-3.67-1.56Zm0,28V202H39.77a4.25,4.25,0,0,0,3.67-1.56,5.49,5.49,0,0,0,1.14-3.24,5.39,5.39,0,0,0-1.14-3.3,4.32,4.32,0,0,0-3.67-1.5Z"/><path class="71158600-63cf-4674-8b3f-fefad4497961" d="M99.41,214.27q0,5.76-3.48,8.7a12.88,12.88,0,0,1-16.38,0q-3.42-2.94-3.42-8.7V152.11q0-5.52,3.42-8.52a12.68,12.68,0,0,1,16.38,0q3.48,3,3.48,8.52Z"/><path class="71158600-63cf-4674-8b3f-fefad4497961" d="M137,193.51a12.63,12.63,0,0,1-1.68-6.36q0-5.28,2.1-8.16t6.9-2.88H146a6.75,6.75,0,0,0,4.8-1.68q1.8-1.68,1.8-5.28,0-3.24-1.8-4.56a9.36,9.36,0,0,0-5.52-1.32h-12.6v50.16q0,12-11.64,12t-11.76-11.76v-61q0-11.76,11.28-11.76h25.2a33.68,33.68,0,0,1,12.84,2.22,25.78,25.78,0,0,1,8.88,5.82,23,23,0,0,1,5.16,8.22,27.37,27.37,0,0,1,1.68,9.42,25.15,25.15,0,0,1-4.14,14.64,22.5,22.5,0,0,1-10,8.4l11.16,17.52a15.21,15.21,0,0,1,2.28,7.2,10.32,10.32,0,0,1-1.08,4.68,11.26,11.26,0,0,1-2.88,3.66,13.73,13.73,0,0,1-4.08,2.34,13.11,13.11,0,0,1-4.56.84,11.49,11.49,0,0,1-5.46-1.44,10.75,10.75,0,0,1-4.38-4.56Z"/><path class="71158600-63cf-4674-8b3f-fefad4497961" d="M222.53,214.27q0,5.76-3.48,8.7a12.42,12.42,0,0,1-8.28,2.94,12,12,0,0,1-8.1-2.94q-3.42-2.94-3.42-8.7v-49.8h-8.16q-5.52,0-8.58-3.48a12.73,12.73,0,0,1,0-16.56q3.06-3.48,8.58-3.48h39.36a11,11,0,0,1,8.64,3.48,12.55,12.55,0,0,1,0,16.56,11,11,0,0,1-8.64,3.48h-7.92Z"/><path class="71158600-63cf-4674-8b3f-fefad4497961" d="M314.81,214.27q0,5.76-3.48,8.7a12.42,12.42,0,0,1-8.28,2.94A12,12,0,0,1,295,223q-3.42-2.94-3.42-8.7v-20h-19v20q0,5.76-3.48,8.7a12.42,12.42,0,0,1-8.28,2.94,12,12,0,0,1-8.1-2.94q-3.42-2.94-3.42-8.7V152.11q0-5.52,3.42-8.52a11.88,11.88,0,0,1,8.1-3,12.27,12.27,0,0,1,8.28,3q3.48,3,3.48,8.52v20.16h19V152.11q0-5.52,3.42-8.52a11.88,11.88,0,0,1,8.1-3,12.27,12.27,0,0,1,8.28,3q3.48,3,3.48,8.52Z"/><path class="71158600-63cf-4674-8b3f-fefad4497961" d="M324.53,152.71a9.82,9.82,0,0,1,1.08-4.44,13.16,13.16,0,0,1,2.82-3.78,14.08,14.08,0,0,1,3.9-2.58,10.56,10.56,0,0,1,4.32-1h11.28a46,46,0,0,1,19.14,3.72,41.13,41.13,0,0,1,13.68,9.72A40.33,40.33,0,0,1,389,168.13a46.32,46.32,0,0,1,2.76,15.66,45.6,45.6,0,0,1-2.64,15.36,39.54,39.54,0,0,1-7.92,13.32,38.94,38.94,0,0,1-13.08,9.42,43.78,43.78,0,0,1-18.24,3.54h-13.2a12.31,12.31,0,0,1-8.82-3.12q-3.3-3.12-3.3-8.64ZM350,202a18.68,18.68,0,0,0,8.1-1.68A17.69,17.69,0,0,0,364,196a18.48,18.48,0,0,0,3.54-6.24,22.11,22.11,0,0,0,1.2-7.14,19.24,19.24,0,0,0-1.14-6.54,16.41,16.41,0,0,0-9.3-9.78,21,21,0,0,0-8.4-1.56h-2V202Z"/><path class="71158600-63cf-4674-8b3f-fefad4497961" d="M448.37,209.11h-25l-3.72,9.24a12.83,12.83,0,0,1-4.44,5.7,10.16,10.16,0,0,1-5.76,1.86,13.84,13.84,0,0,1-4.62-.78,13.6,13.6,0,0,1-4-2.22,11,11,0,0,1-2.88-3.48,9.59,9.59,0,0,1-1.08-4.56,10.18,10.18,0,0,1,.84-4.68l28.56-62.64a14.29,14.29,0,0,1,3.72-5q2.28-1.92,7.08-1.92,4.56,0,6.9,1.92a12.72,12.72,0,0,1,3.66,5.16l26,62.52a10.64,10.64,0,0,1,.84,4.68,9.34,9.34,0,0,1-1.08,4.44,11.38,11.38,0,0,1-2.82,3.48,13.64,13.64,0,0,1-4,2.28,13.11,13.11,0,0,1-4.56.84q-7.68,0-10.32-7.56Zm-17.64-18.36H442l-5.16-15.24Z"/><path class="71158600-63cf-4674-8b3f-fefad4497961" d="M522.05,146.59a11.3,11.3,0,0,1,14.4-5.1,13.53,13.53,0,0,1,3.84,2.4,11.51,11.51,0,0,1,2.7,3.6,10.16,10.16,0,0,1,1,4.5,12,12,0,0,1-1.92,6.36l-18.72,30.48v25.44q0,5.76-3.48,8.7a12.88,12.88,0,0,1-16.38,0q-3.42-2.94-3.42-8.7V188.83l-19-30.6a10.89,10.89,0,0,1-1.92-5.88,10.55,10.55,0,0,1,1-4.56,12.79,12.79,0,0,1,2.7-3.78,12.3,12.3,0,0,1,3.84-2.52,11.31,11.31,0,0,1,9.84.48,11,11,0,0,1,4.56,4.5l10.44,18.24Z"/></svg>