<svg id="8cdb6afa-97c1-4edc-a700-96d5513a18de" data-name="圖層 1" xmlns="http://www.w3.org/2000/svg" width="543.95" height="225.56" viewBox="0 0 543.95 225.56"><defs><style>.c27a3afb-f647-49ef-84fe-325e00c97a54{fill:#fff;}</style></defs><title>title-w</title><path class="c27a3afb-f647-49ef-84fe-325e00c97a54" d="M156.78,73.68q0,5.76-3.48,8.7A12.42,12.42,0,0,1,145,85.32a12,12,0,0,1-8.1-2.94q-3.42-2.94-3.42-8.7v-20h-19v20q0,5.76-3.48,8.7a12.42,12.42,0,0,1-8.28,2.94,12,12,0,0,1-8.1-2.94q-3.42-2.94-3.42-8.7V11.52Q91.26,6,94.68,3a11.88,11.88,0,0,1,8.1-3,12.27,12.27,0,0,1,8.28,3q3.48,3,3.48,8.52V31.68h19V11.52Q133.5,6,136.92,3A11.88,11.88,0,0,1,145,0a12.27,12.27,0,0,1,8.28,3q3.48,3,3.48,8.52Z"/><path class="c27a3afb-f647-49ef-84fe-325e00c97a54" d="M215.34,68.52h-25l-3.72,9.24a12.83,12.83,0,0,1-4.44,5.7,10.16,10.16,0,0,1-5.76,1.86,13.84,13.84,0,0,1-4.62-.78,13.6,13.6,0,0,1-4-2.22,11,11,0,0,1-2.88-3.48,9.59,9.59,0,0,1-1.08-4.56,10.18,10.18,0,0,1,.84-4.68L193.26,7a14.29,14.29,0,0,1,3.72-5Q199.26,0,204.06,0q4.56,0,6.9,1.92a12.72,12.72,0,0,1,3.66,5.16l26,62.52a10.64,10.64,0,0,1,.84,4.68,9.34,9.34,0,0,1-1.08,4.44,11.38,11.38,0,0,1-2.82,3.48,13.64,13.64,0,0,1-4,2.28,13.11,13.11,0,0,1-4.56.84q-7.68,0-10.32-7.56ZM197.7,50.16H209l-5.16-15.24Z"/><path class="c27a3afb-f647-49ef-84fe-325e00c97a54" d="M272.34,73.32q0,12-11.64,12T248.94,73.56V12.12Q248.94.36,260.22.36H284a40.45,40.45,0,0,1,13.14,1.92,24,24,0,0,1,9.18,5.46,21.82,21.82,0,0,1,5.34,8.58,34.68,34.68,0,0,1,1.74,11.28,34.52,34.52,0,0,1-1.62,10.74,25.61,25.61,0,0,1-4.62,8.58,21.83,21.83,0,0,1-7.32,5.7,22.23,22.23,0,0,1-9.84,2.1H285.9q-5.76,0-8-2.7a10.89,10.89,0,0,1-2.28-7.26q0-4.56,2.52-6.72a9.43,9.43,0,0,1,6.36-2.16h1.92a6.62,6.62,0,0,0,4.68-1.56,6.25,6.25,0,0,0,1.68-4.8q0-3.6-2-5.22a9.08,9.08,0,0,0-5.76-1.62h-12.6Z"/><path class="c27a3afb-f647-49ef-84fe-325e00c97a54" d="M343.14,73.32q0,12-11.64,12T319.74,73.56V12.12Q319.74.36,331,.36h23.76a40.45,40.45,0,0,1,13.14,1.92,24,24,0,0,1,9.18,5.46,21.82,21.82,0,0,1,5.34,8.58,34.68,34.68,0,0,1,1.74,11.28,34.52,34.52,0,0,1-1.62,10.74,25.61,25.61,0,0,1-4.62,8.58,21.83,21.83,0,0,1-7.32,5.7,22.23,22.23,0,0,1-9.84,2.1H356.7c-3.84,0-6.53-.9-8-2.7a10.89,10.89,0,0,1-2.28-7.26q0-4.56,2.52-6.72a9.43,9.43,0,0,1,6.36-2.16h1.92a6.63,6.63,0,0,0,4.68-1.56,6.25,6.25,0,0,0,1.68-4.8q0-3.6-2-5.22a9.1,9.1,0,0,0-5.76-1.62h-12.6Z"/><path class="c27a3afb-f647-49ef-84fe-325e00c97a54" d="M430.62,6A11.3,11.3,0,0,1,445,.9a13.53,13.53,0,0,1,3.84,2.4,11.51,11.51,0,0,1,2.7,3.6,10.16,10.16,0,0,1,1,4.5,12.09,12.09,0,0,1-1.92,6.36L431.94,48.24V73.68q0,5.76-3.48,8.7a12.88,12.88,0,0,1-16.38,0q-3.42-2.94-3.42-8.7V48.24l-19-30.6a10.89,10.89,0,0,1-1.92-5.88,10.55,10.55,0,0,1,1-4.56,12.61,12.61,0,0,1,2.7-3.78A12.3,12.3,0,0,1,395.34.9,11.7,11.7,0,0,1,399.9,0a11.84,11.84,0,0,1,5.28,1.38,11,11,0,0,1,4.56,4.5l10.44,18.24Z"/><path class="c27a3afb-f647-49ef-84fe-325e00c97a54" d="M0,152.36Q0,140.6,10.56,140.6H47.4a15.84,15.84,0,0,1,7.8,1.86,17.55,17.55,0,0,1,5.64,4.92,21.65,21.65,0,0,1,3.42,7,28.92,28.92,0,0,1,1.14,8,25.46,25.46,0,0,1-3.06,12.66A13.83,13.83,0,0,1,52.8,182a12.39,12.39,0,0,1,5.82,2.16A15.87,15.87,0,0,1,63,188.84a24.7,24.7,0,0,1,2.82,6.6,29.37,29.37,0,0,1,1,7.8,28.81,28.81,0,0,1-1.2,8.4,19.46,19.46,0,0,1-3.72,7,17.39,17.39,0,0,1-6.54,4.74,23.9,23.9,0,0,1-9.54,1.74H11.16Q0,225.08,0,213.2Zm22.32,11.76V175h17.4a4,4,0,0,0,3.6-1.8,7.19,7.19,0,0,0,1.2-4.08,5.76,5.76,0,0,0-1.14-3.48,4.23,4.23,0,0,0-3.66-1.56Zm0,28v9.6h17.4a4.23,4.23,0,0,0,3.66-1.56,5.42,5.42,0,0,0,1.14-3.24,5.33,5.33,0,0,0-1.14-3.3,4.3,4.3,0,0,0-3.66-1.5Z"/><path class="c27a3afb-f647-49ef-84fe-325e00c97a54" d="M99.36,213.92q0,5.76-3.48,8.7a12.88,12.88,0,0,1-16.38,0q-3.42-2.94-3.42-8.7V151.76q0-5.52,3.42-8.52a12.68,12.68,0,0,1,16.38,0q3.48,3,3.48,8.52Z"/><path class="c27a3afb-f647-49ef-84fe-325e00c97a54" d="M136.92,193.16a12.63,12.63,0,0,1-1.68-6.36q0-5.28,2.1-8.16t6.9-2.88h1.68a6.75,6.75,0,0,0,4.8-1.68q1.8-1.68,1.8-5.28,0-3.24-1.8-4.56a9.36,9.36,0,0,0-5.52-1.32H132.6v50.16q0,12-11.64,12T109.2,213.32v-61q0-11.76,11.28-11.76h25.2a33.68,33.68,0,0,1,12.84,2.22,25.78,25.78,0,0,1,8.88,5.82,23,23,0,0,1,5.16,8.22,27.37,27.37,0,0,1,1.68,9.42,25.15,25.15,0,0,1-4.14,14.64,22.5,22.5,0,0,1-10,8.4l11.16,17.52a15.21,15.21,0,0,1,2.28,7.2,10.32,10.32,0,0,1-1.08,4.68,11.26,11.26,0,0,1-2.88,3.66,13.73,13.73,0,0,1-4.08,2.34,13.11,13.11,0,0,1-4.56.84,11.49,11.49,0,0,1-5.46-1.44,10.75,10.75,0,0,1-4.38-4.56Z"/><path class="c27a3afb-f647-49ef-84fe-325e00c97a54" d="M222.48,213.92q0,5.76-3.48,8.7a12.45,12.45,0,0,1-8.28,2.94,12,12,0,0,1-8.1-2.94q-3.42-2.94-3.42-8.7v-49.8H191c-3.69,0-6.54-1.16-8.58-3.48a12.73,12.73,0,0,1,0-16.56c2-2.32,4.89-3.48,8.58-3.48H230.4a11,11,0,0,1,8.64,3.48,12.55,12.55,0,0,1,0,16.56,11,11,0,0,1-8.64,3.48h-7.92Z"/><path class="c27a3afb-f647-49ef-84fe-325e00c97a54" d="M314.76,213.92c0,3.84-1.17,6.74-3.48,8.7a12.45,12.45,0,0,1-8.28,2.94,12,12,0,0,1-8.1-2.94q-3.42-2.94-3.42-8.7v-20h-19v20c0,3.84-1.17,6.74-3.48,8.7a12.45,12.45,0,0,1-8.28,2.94,12,12,0,0,1-8.1-2.94q-3.42-2.94-3.42-8.7V151.76q0-5.52,3.42-8.52a11.88,11.88,0,0,1,8.1-3,12.3,12.3,0,0,1,8.28,3c2.31,2,3.48,4.84,3.48,8.52v20.16h19V151.76q0-5.52,3.42-8.52a11.88,11.88,0,0,1,8.1-3,12.3,12.3,0,0,1,8.28,3c2.31,2,3.48,4.84,3.48,8.52Z"/><path class="c27a3afb-f647-49ef-84fe-325e00c97a54" d="M324.48,152.36a9.82,9.82,0,0,1,1.08-4.44,13,13,0,0,1,2.82-3.78,13.93,13.93,0,0,1,3.9-2.58,10.56,10.56,0,0,1,4.32-1h11.28A46.06,46.06,0,0,1,367,144.32,41.34,41.34,0,0,1,380.7,154a40.65,40.65,0,0,1,8.22,13.74,46.57,46.57,0,0,1,2.76,15.66A45.85,45.85,0,0,1,389,198.8a39.7,39.7,0,0,1-7.92,13.32A39,39,0,0,1,368,221.54a43.81,43.81,0,0,1-18.24,3.54H336.6a12.31,12.31,0,0,1-8.82-3.12c-2.21-2.08-3.3-5-3.3-8.64Zm25.44,49.32A18.68,18.68,0,0,0,358,200a17.69,17.69,0,0,0,5.88-4.38,18.65,18.65,0,0,0,3.54-6.24,22.38,22.38,0,0,0,1.2-7.14,19.49,19.49,0,0,0-1.14-6.54,17.27,17.27,0,0,0-3.42-5.7,16.88,16.88,0,0,0-5.88-4.08,21,21,0,0,0-8.4-1.56h-2v37.32Z"/><path class="c27a3afb-f647-49ef-84fe-325e00c97a54" d="M448.32,208.76h-25L419.64,218a12.9,12.9,0,0,1-4.44,5.7,10.21,10.21,0,0,1-5.76,1.86,13.75,13.75,0,0,1-4.62-.78,13.48,13.48,0,0,1-4-2.22,11,11,0,0,1-2.88-3.48,9.59,9.59,0,0,1-1.08-4.56,10.18,10.18,0,0,1,.84-4.68l28.56-62.64a14.29,14.29,0,0,1,3.72-5q2.27-1.92,7.08-1.92,4.56,0,6.9,1.92a12.82,12.82,0,0,1,3.66,5.16l26,62.52a10.79,10.79,0,0,1,.84,4.68A9.34,9.34,0,0,1,473.4,219a11.52,11.52,0,0,1-2.82,3.48,13.77,13.77,0,0,1-4,2.28,13.15,13.15,0,0,1-4.56.84c-5.12,0-8.57-2.52-10.32-7.56ZM430.68,190.4H442l-5.16-15.24Z"/><path class="c27a3afb-f647-49ef-84fe-325e00c97a54" d="M522,146.24a11.3,11.3,0,0,1,14.4-5.1,13.53,13.53,0,0,1,3.84,2.4,11.51,11.51,0,0,1,2.7,3.6,10.16,10.16,0,0,1,1,4.5A12,12,0,0,1,542,158l-18.72,30.48v25.44q0,5.76-3.48,8.7a12.88,12.88,0,0,1-16.38,0q-3.42-2.94-3.42-8.7V188.48l-19-30.6a10.89,10.89,0,0,1-1.92-5.88,10.55,10.55,0,0,1,1-4.56,12.79,12.79,0,0,1,2.7-3.78,12.3,12.3,0,0,1,3.84-2.52,11.31,11.31,0,0,1,9.84.48,11,11,0,0,1,4.56,4.5l10.44,18.24Z"/></svg>