<?xml version="1.0" encoding="utf-8"?>
<!-- Generator: Adobe Illustrator 19.1.0, SVG Export Plug-In . SVG Version: 6.00 Build 0)  -->
<svg version="1.2" baseProfile="tiny" id="圖層_1"
	 xmlns="http://www.w3.org/2000/svg" xmlns:xlink="http://www.w3.org/1999/xlink" x="0px" y="0px" viewBox="0 0 100 100"
	 xml:space="preserve">
<path fill="#29728E" d="M52.3,4.7l13.2,26.7c0.4,0.7,1.1,1.3,1.9,1.4l29.4,4.3c2.1,0.3,2.9,2.9,1.4,4.3L76.9,62.2
	c-0.6,0.6-0.9,1.4-0.7,2.2l5,29.3c0.4,2.1-1.8,3.7-3.7,2.7L51.2,82.6c-0.7-0.4-1.6-0.4-2.4,0L22.5,96.4c-1.9,1-4-0.6-3.7-2.7l5-29.3
	c0.1-0.8-0.1-1.7-0.7-2.2L1.8,41.4c-1.5-1.5-0.7-4,1.4-4.3l29.4-4.3c0.8-0.1,1.5-0.6,1.9-1.4L47.7,4.7C48.7,2.8,51.3,2.8,52.3,4.7z"
	/>
<path fill="#FFEAAE" d="M28.3,26.8c0,0-8.4,7.9-6.7,15.6s5.7,6.9,5.7,6.9s-3.4,6.5-0.6,11.9s4.8,7.5,4.8,7.5s-3.2,11.1,2.3,22
	c0,0,2.1,3.2,6.9,2s5.4-5.2,5.4-5.2s-7.8-13.7-4.1-17.7c0,0,7.6,3.7,16.2-0.1S77.4,56,78.7,48.6s-3.3-8.6-7.3-1.9
	c-4,6.7-9.7,16.4-23.9,15.9c0,0-3,0.3,2.3-6.7s5.6-7.4,2.8-10.1c-2.8-2.7-7.2,1.5-10.4,6s-5.5,11.2-5.5,11.2s-6.5-3.9-3.5-10.4
	s11.2-19.7,11.2-19.7s3.2-9.3-4.4-3.5c0,0-7.4,9.8-9.1,14.2c0,0-3.9-0.8-1.3-7.4S34.8,22.8,28.3,26.8z"/>
</svg>
