<svg xmlns="http://www.w3.org/2000/svg" width="53.8" height="20.61" viewBox="0 0 53.8 20.61"><defs><style>.\31 8e33042-4415-4834-a2f1-14edbfb7ff9b{fill:#aa0049;}</style></defs><title>day</title><g id="415d70ac-1db3-4938-b975-8a62c3519ae0" data-name="圖層 2"><g id="540b4afa-5256-4eff-bae6-d3f32fb11b68" data-name="圖層 1"><path class="18e33042-4415-4834-a2f1-14edbfb7ff9b" d="M5.95,6.24V20.49H0V.5H7.75q5.1,0,8,2.31a9.15,9.15,0,0,1,3.43,7.51,9.92,9.92,0,0,1-2.93,7.41,10.32,10.32,0,0,1-7.54,2.87q-.54,0-1.77-.06V14.68h1q5.2,0,5.2-4.35,0-4.09-5.11-4.09Z"/><path class="18e33042-4415-4834-a2f1-14edbfb7ff9b" d="M29.21,10.46v5.27H27.5v4.76H21.55V7.78a7.82,7.82,0,0,1,2-5.73,7.59,7.59,0,0,1,5.66-2q3.52,0,5.2,1.85t1.68,5.72V20.49H30.16V8a3.36,3.36,0,0,0-.28-1.63,1.07,1.07,0,0,0-1-.45Q27.5,5.89,27.5,8v2.49Z"/><path class="18e33042-4415-4834-a2f1-14edbfb7ff9b" d="M53.8.5,48.15,9.39v11.1H42.2V9.39L36.5.5h6l2.58,4.12L47.89.5Z"/></g></g></svg>