<svg id="8f0bf622-fd0e-4f66-8d3f-ea6ea062c682" data-name="圖層 1" xmlns="http://www.w3.org/2000/svg" width="512" height="512" viewBox="0 0 512 512"><defs><style>.af9a224d-1caf-4895-8a22-fedbbf0bed71{fill:#e9aa9c;}</style></defs><title>heart-full</title><path class="af9a224d-1caf-4895-8a22-fedbbf0bed71" d="M428.11,109.66A110.14,110.14,0,0,0,346.18,74c-23.65,0-45.3,7.48-64.36,22.22a131.51,131.51,0,0,0-26,27.17,131.66,131.66,0,0,0-26-27.17C210.72,81.48,189.07,74,165.42,74a110.15,110.15,0,0,0-81.93,35.66C62.54,132.39,51,163.44,51,197.1c0,34.64,12.91,66.35,40.63,99.79,24.79,29.92,60.43,60.29,101.69,95.45,14.09,12,30.06,25.62,46.65,40.12a24,24,0,0,0,31.66,0c16.58-14.5,32.57-28.12,46.66-40.14,41.26-35.16,76.89-65.52,101.69-95.44,27.72-33.44,40.63-65.15,40.63-99.8,0-33.65-11.54-64.7-32.5-87.43Zm0,0"/></svg>