<svg id="0cf7d2fb-fe7c-4460-8963-bb7b6a9c5c76" data-name="圖層 1" xmlns="http://www.w3.org/2000/svg" width="512" height="512" viewBox="0 0 512 512"><defs><style>.\38 c16decb-3145-4c49-abe4-d7032fd2f8d4{fill:#e9aa9c;}</style></defs><title>heart</title><path class="8c16decb-3145-4c49-abe4-d7032fd2f8d4" d="M255.8,438.41A24,24,0,0,1,240,432.46c-16.55-14.47-32.5-28.07-46.57-40.06l-.07-.06c-41.26-35.17-76.9-65.54-101.69-95.45C63.91,263.45,51,231.74,51,197.1c0-33.66,11.54-64.71,32.49-87.43A110.15,110.15,0,0,1,165.43,74c23.64,0,45.3,7.48,64.36,22.22a131.74,131.74,0,0,1,26,27.17,131.61,131.61,0,0,1,26-27.17C300.88,81.48,322.53,74,346.18,74a110.15,110.15,0,0,1,81.93,35.66c21,22.73,32.49,53.78,32.49,87.43,0,34.64-12.91,66.35-40.62,99.79-24.79,29.92-60.42,60.28-101.68,95.44-14.1,12-30.08,25.63-46.66,40.13a24,24,0,0,1-15.83,5.95ZM165.43,98a86.41,86.41,0,0,0-64.29,27.93C84.27,144.21,75,169.48,75,197.1c0,29.14,10.83,55.19,35.11,84.48,23.46,28.32,58.37,58.06,98.78,92.5l.07.06c14.13,12,30.14,25.69,46.81,40.27,16.77-14.6,32.81-28.27,47-40.33,40.41-34.44,75.31-64.18,98.78-92.5,24.27-29.29,35.1-55.35,35.1-84.48,0-27.61-9.29-52.89-26.14-71.17A86.41,86.41,0,0,0,346.18,98a79.58,79.58,0,0,0-49.68,17.2c-13.15,10.18-22.32,23-27.69,32a15.15,15.15,0,0,1-26,0c-5.37-9-14.53-21.86-27.69-32A79.56,79.56,0,0,0,165.43,98Zm0,0"/></svg>