<svg xmlns="http://www.w3.org/2000/svg" xmlns:xlink="http://www.w3.org/1999/xlink" width="235.6" height="357.64" viewBox="0 0 235.6 357.64"><defs><style>.\36 12a5339-d5c5-472a-adbc-23b9e9dde39b,.\38 62810f0-bb03-434b-8d3f-566052041ef4,.\39 4878180-39d3-4a26-8f8a-8504583e7cf3,.a75dd7b1-c4ed-42ee-b052-18364ef38827{fill:none;stroke-miterlimit:10;stroke-width:2px;}.\38 62810f0-bb03-434b-8d3f-566052041ef4{stroke:#4e17a5;}.\36 f378a0e-77cb-4c46-b79e-ecac24489f41{fill:#4e17a5;}.\36 12a5339-d5c5-472a-adbc-23b9e9dde39b{stroke:url(#df271785-6b03-4f26-a53f-61b8dda0baee);}.a75dd7b1-c4ed-42ee-b052-18364ef38827{stroke:url(#cb507ed9-6241-4407-83ea-daf6fddc643c);}.\39 4878180-39d3-4a26-8f8a-8504583e7cf3{stroke:url(#6e7f26d6-375f-49ea-94d6-2ea51282e0b4);}</style><linearGradient id="df271785-6b03-4f26-a53f-61b8dda0baee" x1="91.22" y1="73.65" x2="123.88" y2="73.65" gradientTransform="matrix(0.97, -0.1, 0.1, 0.99, -5.31, 13.21)" gradientUnits="userSpaceOnUse"><stop offset="0" stop-color="#8f31ab"/><stop offset="1" stop-color="#8a30a9"/></linearGradient><linearGradient id="cb507ed9-6241-4407-83ea-daf6fddc643c" x1="163.05" y1="90.9" x2="195.71" y2="90.9" gradientTransform="matrix(0.98, -0.05, 0.05, 1, -0.25, 7.8)" xlink:href="#df271785-6b03-4f26-a53f-61b8dda0baee"/><linearGradient id="6e7f26d6-375f-49ea-94d6-2ea51282e0b4" x1="146.06" y1="95.29" x2="149.13" y2="95.29" gradientTransform="matrix(1, 0, 0, 1, 0, 0)" xlink:href="#df271785-6b03-4f26-a53f-61b8dda0baee"/></defs><title>arwen</title><g id="aa492648-77c5-4d7b-9992-9b1d7e2ce54c" data-name="圖層 2"><g id="84b51c22-6b74-4337-9a35-b943c98558f9" data-name="圖層 1"><line class="862810f0-bb03-434b-8d3f-566052041ef4" x1="152.41" y1="59.94" x2="163.13" y2="19.22"/><ellipse class="6f378a0e-77cb-4c46-b79e-ecac24489f41" cx="117.8" cy="202.22" rx="156" ry="117" transform="translate(-98.14 292.46) rotate(-82.46)"/><circle class="862810f0-bb03-434b-8d3f-566052041ef4" cx="163.3" cy="20.72" r="5.5"/><path class="862810f0-bb03-434b-8d3f-566052041ef4" d="M168.8,20.22s19-4,33,2,13,14,12,17-10.64,3.13-22-1c-11-4-24.16-14.12-24.16-14.12"/><path class="862810f0-bb03-434b-8d3f-566052041ef4" d="M158.25,17.06S144.09,3.78,129,1.64,114.5,3.14,113.8,6.22s3.6,11.92,15.45,14.29c11.48,2.29,28,.47,28,.47"/><line class="612a5339-d5c5-472a-adbc-23b9e9dde39b" x1="90.58" y1="73.19" x2="122.67" y2="78.54"/><line class="a75dd7b1-c4ed-42ee-b052-18364ef38827" x1="164.02" y1="85.6" x2="195.89" y2="92.45"/><line class="94878180-39d3-4a26-8f8a-8504583e7cf3" x1="148.13" y1="81.37" x2="147.06" y2="109.22"/></g></g></svg>