<svg xmlns="http://www.w3.org/2000/svg" xmlns:xlink="http://www.w3.org/1999/xlink" width="204.97" height="269.93" viewBox="0 0 204.97 269.93"><defs><style>.\30 2f289f5-82d1-45d5-9a3c-338c4644a90b{fill:#4e17a5;}.\32 1c9dcfb-7239-4739-84e6-5fe30844f628{fill:url(#2eaa1e0b-8912-4b27-8fb5-a2e0d8e39793);}.\33 94c9bd6-80a2-4d8e-81dd-2bdff98a74da{fill:url(#4b004a99-a0c0-4e66-98cc-30df1f9f708c);}.\35 b3cba24-1911-46a5-af0c-ae7542d0812d{fill:none;stroke-miterlimit:10;stroke-width:2px;stroke:url(#e9a517ac-b1e9-4529-973e-043ef2f5b131);}</style><linearGradient id="2eaa1e0b-8912-4b27-8fb5-a2e0d8e39793" x1="136.19" y1="60.09" x2="151.19" y2="60.09" gradientTransform="translate(18.64 4.84) scale(0.88 0.85)" gradientUnits="userSpaceOnUse"><stop offset="0" stop-color="#8f31ab"/><stop offset="1" stop-color="#8a30a9"/></linearGradient><linearGradient id="4b004a99-a0c0-4e66-98cc-30df1f9f708c" x1="69.35" y1="61.6" x2="86.35" y2="61.6" gradientTransform="matrix(1, 0, 0, 1, 0, 0)" xlink:href="#2eaa1e0b-8912-4b27-8fb5-a2e0d8e39793"/><linearGradient id="e9a517ac-b1e9-4529-973e-043ef2f5b131" x1="132.49" y1="46.62" x2="148.6" y2="46.62" gradientTransform="matrix(0.83, 0.13, 0.09, 0.93, 20.49, -15.26)" xlink:href="#2eaa1e0b-8912-4b27-8fb5-a2e0d8e39793"/></defs><title>chun</title><g id="7359bd2e-2176-44e6-9748-92b8e8d43012" data-name="圖層 2"><g id="788a39c1-8c10-46b9-893c-d813fd36ea68" data-name="圖層 1"><path class="02f289f5-82d1-45d5-9a3c-338c4644a90b" d="M102.14,35.56s-3.75-9.86-5.79-13.63c-1.92-3.53-10-15.6-10-15.6l1.76-1s7.64,10.25,9.29,13.55c3,6,6.55,15.67,6.55,15.67Z"/><path class="02f289f5-82d1-45d5-9a3c-338c4644a90b" d="M104.62,33s2.33-12,2.73-16.08c.75-7.74,1-14,1.17-16.93l2,.24a162.7,162.7,0,0,1-1.15,16.69c-1,7-2.75,16.32-2.75,16.32Z"/><path class="02f289f5-82d1-45d5-9a3c-338c4644a90b" d="M156.65,67.5c.36,2.75,4.89,4.53,9.9,3.88a13.59,13.59,0,0,0,6.52-2.5,7,7,0,0,0,.69-.62q-2.83-3.72-5.9-7.14l-.53,0a16.67,16.67,0,0,0-2.09.14C160.23,61.88,156.3,64.75,156.65,67.5Z"/><path class="02f289f5-82d1-45d5-9a3c-338c4644a90b" d="M204.35,154.07c-2.56-32.45-13-62.07-29.37-84.2-.22.2-.44.4-.68.58a15.56,15.56,0,0,1-7.5,2.92,19.06,19.06,0,0,1-2.36.15c-5.22,0-9.32-2.32-9.77-5.77-.51-4,4-7.69,10.32-8.5l1-.1c-17-18-38.78-28.94-63.69-28.94C46,30.21,4,85.77.35,154.07c-5,92.86,44.66,115.86,101,115.86S211.35,242.93,204.35,154.07Z"/><ellipse class="21c9dcfb-7239-4739-84e6-5fe30844f628" cx="145.48" cy="55.96" rx="6.62" ry="4.25" transform="translate(-9.92 43.86) rotate(-16.59)"/><ellipse class="394c9bd6-80a2-4d8e-81dd-2bdff98a74da" cx="77.85" cy="61.6" rx="8.5" ry="5.67"/><line class="5b3cba24-1911-46a5-af0c-ae7542d0812d" x1="135.09" y1="50.55" x2="146.6" y2="43.31"/></g></g></svg>