<svg xmlns="http://www.w3.org/2000/svg" xmlns:xlink="http://www.w3.org/1999/xlink" width="298.88" height="407" viewBox="0 0 298.88 407"><defs><style>.\38 abaa948-b2ec-4b9d-9052-56350d60c3e5{fill:#4e17a5;}.\31 69a3435-5ea2-44a2-8e49-8c58fa9b28b7{fill:url(#44e7d4b9-d2c5-4c31-b512-be057b41f429);}.\39 c794d12-fe69-4126-8a5d-b8b208a9d271{fill:url(#9ba2b387-2636-4369-a127-3378695289dc);}.e8f0ed97-29ba-42f6-aaf2-3219ea698587{fill:url(#b76507ec-c8b4-4e45-a538-14dedcaa6430);}</style><linearGradient id="44e7d4b9-d2c5-4c31-b512-be057b41f429" x1="81.41" y1="113.63" x2="88.29" y2="113.63" gradientUnits="userSpaceOnUse"><stop offset="0" stop-color="#8f31ab"/><stop offset="1" stop-color="#8a30a9"/></linearGradient><linearGradient id="9ba2b387-2636-4369-a127-3378695289dc" x1="172.18" y1="98.47" x2="179.06" y2="98.47" gradientTransform="translate(1.24 17.16)" xlink:href="#44e7d4b9-d2c5-4c31-b512-be057b41f429"/><linearGradient id="b76507ec-c8b4-4e45-a538-14dedcaa6430" x1="-1135.27" y1="3378.5" x2="-1128.39" y2="3378.5" gradientTransform="translate(1254.19 -3246)" xlink:href="#44e7d4b9-d2c5-4c31-b512-be057b41f429"/></defs><title>ec</title><g id="0ead980b-34c5-48a2-8442-8ce83add42e6" data-name="圖層 2"><g id="c4ea2f41-2d64-4851-b762-abe12abfddea" data-name="圖層 1"><path class="8abaa948-b2ec-4b9d-9052-56350d60c3e5" d="M286.85,307.17c-8.37-5.23-25.24-3.52-37.47-1.3C260.25,245.11,254,182.11,243,129.18l32.32,1,.12-3.84-33.25-1q-1.17-5.4-2.38-10.64l28-1.4-.19-3.84-28.68,1.44C223.39,45.82,202.38,0,202.38,0L171.66,76.79h-71L93,5.76S52.63,90.23,50.71,113.27A114.08,114.08,0,0,0,37.31,125L4.53,126.71l.21,3.84L33.64,129a47.31,47.31,0,0,0-4.05,5.37l1.33,1.47L0,149.92l1.59,3.49,32-14.55,13.26,14.72s-7.68,28.8-5.76,103.67S93,407,93,407c9.59-23,11.51-55.67,11.51-55.67h97.92l15.35,44.15a269.82,269.82,0,0,0,27.65-70.57c20.33-1.89,13.4,6.73,5,16.82-9.6,11.52,1.92,28.79,28.8,13.44S302.21,316.77,286.85,307.17Z"/><rect class="169a3435-5ea2-44a2-8e49-8c58fa9b28b7" x="81.41" y="106.75" width="6.88" height="13.76" rx="3.44" ry="3.44" transform="translate(22.63 -13.81) rotate(10.73)"/><rect class="9c794d12-fe69-4126-8a5d-b8b208a9d271" x="173.41" y="108.75" width="6.88" height="13.76" rx="3.44" ry="3.44" transform="translate(8.83 -12.5) rotate(4.15)"/><rect class="e8f0ed97-29ba-42f6-aaf2-3219ea698587" x="118.93" y="125.63" width="6.88" height="13.76" rx="3.44" ry="3.44" transform="translate(-10.14 254.87) rotate(-90)"/></g></g></svg>